<svg width="184" height="184" viewBox="0 0 184 184" fill="none" xmlns="http://www.w3.org/2000/svg">
<path d="M92 12C47.8172 12 12 47.8173 12 92C12 136.183 47.8172 172 92 172C136.183 172 172 136.183 172 92C172 47.8173 136.183 12 92 12ZM91.3708 16.6182L95.6418 16.7037L95.4833 24.629C97.5123 24.7313 99.5255 24.9234 101.52 25.2041L102.885 17.4056L107.093 18.1419L105.73 25.9341C107.711 26.3432 109.671 26.8422 111.608 27.4304L114.144 19.9415L118.191 21.3114L115.654 28.8016C116.526 29.1287 117.393 29.4731 118.254 29.8372C119.257 30.2612 120.25 30.7105 121.233 31.1843L124.884 24.1663L128.674 26.1378L125.02 33.1608C126.622 34.0616 128.187 35.0271 129.708 36.0546C129.862 36.1585 130.014 36.2637 130.167 36.3688L134.854 29.9809L138.298 32.5081L133.609 38.899C135.199 40.1471 136.734 41.4678 138.206 42.8522L143.819 37.2495L146.837 40.2728L141.225 45.8755C142.607 47.3501 143.925 48.8878 145.17 50.4796L151.569 45.8011L154.091 49.2499L147.695 53.9258C147.778 54.0478 147.863 54.1694 147.945 54.2919C148.994 55.844 149.978 57.4422 150.895 59.0776L157.923 55.4357L159.889 59.2287L152.864 62.8686C153.32 63.8184 153.753 64.778 154.163 65.7458C154.542 66.6416 154.899 67.5435 155.237 68.4511L162.732 65.9273L164.095 69.9761L156.602 72.4995C157.187 74.4374 157.683 76.3985 158.089 78.3805L165.883 77.0301L166.612 81.2394L158.812 82.5912C159.089 84.5863 159.278 86.5998 159.377 88.6289L167.302 88.4838L167.381 92.7552L159.453 92.9004C159.426 94.9337 159.311 96.9525 159.107 98.9543L166.957 100.02L166.382 104.253L158.54 103.188C158.207 105.186 157.784 107.165 157.272 109.121L164.854 111.368L163.64 115.464L156.059 113.217C155.496 114.915 154.864 116.595 154.163 118.254C154.074 118.464 153.983 118.674 153.892 118.883L161.043 122.262L159.218 126.125L152.064 122.744C151.141 124.542 150.135 126.3 149.054 128.009L155.615 132.447L153.221 135.986L146.658 131.546C145.472 133.181 144.211 134.765 142.882 136.291L148.695 141.684L145.79 144.816L139.976 139.422C139.884 139.515 139.793 139.608 139.701 139.701C138.365 141.036 136.971 142.318 135.526 143.54L140.447 149.756L137.097 152.407L132.178 146.194C131.367 146.796 130.544 147.381 129.708 147.945C128.869 148.512 128.017 149.059 127.153 149.588L131.063 156.474L127.347 158.584L123.44 151.701C121.745 152.596 120.013 153.419 118.254 154.163C118.154 154.205 118.053 154.246 117.953 154.288L120.763 161.681L116.769 163.199L113.96 155.807C112.044 156.468 110.104 157.039 108.141 157.521L109.789 165.255L105.61 166.146L103.962 158.406C101.976 158.761 99.9714 159.027 97.9492 159.202L98.3978 167.112L94.1325 167.354L93.6839 159.438C93.1237 159.452 92.5622 159.459 92 159.459C90.5328 159.459 89.0732 159.412 87.6217 159.32L86.8569 167.209L82.6048 166.797L83.3686 158.915C81.3573 158.659 79.3646 158.313 77.3926 157.878L75.4366 165.542L71.2973 164.486L73.2525 156.825C71.3135 156.264 69.3972 155.615 67.507 154.878L64.4047 162.152L60.4752 160.476L63.5782 153.2C61.7474 152.347 59.9516 151.41 58.2007 150.394L54.0195 157.117L50.3918 154.861L54.5752 148.134C54.4808 148.071 54.3858 148.009 54.2918 147.945C52.7133 146.879 51.1766 145.742 49.6891 144.543L44.5243 150.556L41.2835 147.773L46.4502 141.757C45.7181 141.087 45.0004 140.401 44.2995 139.701C43.5721 138.973 42.8608 138.228 42.1664 137.467L36.1423 142.624L33.3642 139.378L39.3866 134.223C38.2128 132.763 37.0999 131.256 36.0546 129.708C35.97 129.583 35.8869 129.457 35.8031 129.331L29.0693 133.503L26.8192 129.872L33.5494 125.702C32.5364 123.949 31.6025 122.152 30.7534 120.319L23.4713 123.411L21.802 119.478L29.0816 116.388C28.3472 114.497 27.7013 112.579 27.1442 110.639L19.4797 112.582L18.43 108.44L26.0973 106.497C25.6655 104.525 25.3225 102.531 25.0703 100.519L17.1877 101.27L16.7827 97.0173L24.6726 96.2661C24.5851 94.8514 24.5411 93.4292 24.5411 92C24.5411 91.4 24.5495 90.8012 24.5648 90.2035L16.6495 89.7417L16.8984 85.4769L24.8078 85.9383C24.9865 83.9167 25.2557 81.9124 25.6136 79.9274L17.8772 78.2659L18.7743 74.0889L26.506 75.7495C26.9911 73.7878 27.5656 71.8481 28.2292 69.9329L20.8425 67.1119L22.3665 63.121L29.7553 65.9427C29.7829 65.877 29.8094 65.8114 29.8372 65.7458C30.5957 63.9524 31.4361 62.1876 32.3516 60.4607L25.4754 56.5415L27.591 52.83L34.4711 56.7516C34.9816 55.9203 35.509 55.0996 36.0546 54.2919C36.6399 53.4255 37.2469 52.5717 37.8734 51.7316L31.6679 46.8021L34.3252 43.4572L40.5335 48.3886C41.7331 46.9743 42.9902 45.6088 44.2995 44.2995C44.4184 44.1806 44.5385 44.0629 44.6583 43.9449L39.2743 38.1223L42.4111 35.2219L47.794 41.0436C49.3215 39.7174 50.9087 38.4595 52.5454 37.2767L48.1168 30.705L51.6592 28.3176L56.0855 34.8853C57.7965 33.8072 59.5566 32.8046 61.3563 31.8848L57.9874 24.7248L61.8532 22.906L65.2204 30.0631C65.3955 29.9874 65.5704 29.9114 65.7458 29.8372C67.4394 29.1208 69.1551 28.4779 70.8902 27.9059L68.6556 20.3213L72.7538 19.1139L74.9882 26.6991C76.9451 26.1904 78.9241 25.7706 80.9225 25.4414L79.871 17.5978L84.1053 17.0301L85.1578 24.8813C87.1596 24.6809 89.1788 24.5688 91.2123 24.546L91.3708 16.6182ZM120.505 37.9696C115.643 38.192 110.236 39.728 106.27 42.2445C102.3 44.7647 98.977 48.3032 96.709 52.6018C94.4412 56.9006 93.3962 61.6412 93.5575 66.341C93.7189 71.0349 95.3835 76.5939 97.9444 80.7324C102.806 80.5095 108.337 78.7447 112.301 76.2281C116.271 73.7083 119.593 70.1697 121.861 65.8715C124.129 61.5731 125.174 56.8333 125.012 52.1339C124.852 47.441 123.065 42.1079 120.505 37.9696ZM60.3237 40.2858C60.0342 40.2858 59.7459 40.2902 59.4606 40.2988C57.2222 44.6207 55.8489 50.0714 56.0456 54.7637C56.2428 59.4623 57.646 64.1096 60.2347 68.2229C62.8236 72.3363 66.4068 75.6115 70.5575 77.8217C74.7031 80.0288 80.3496 81.3669 85.2142 81.2181C87.4518 76.8967 88.6889 71.2245 88.4917 66.5328C88.2944 61.8349 86.8909 57.1884 84.3024 53.0754C81.7137 48.9624 78.1315 45.6874 73.9811 43.4772C70.0796 41.3996 64.9674 40.2857 60.3237 40.2858ZM119.035 40.7568C119.486 41.5424 119.891 42.3475 120.25 43.168C119.197 43.4975 118.17 43.8888 117.173 44.3384C116.979 43.2521 116.718 42.1734 116.391 41.1084C117.26 40.9445 118.142 40.8267 119.035 40.7568ZM113.763 41.7553C114.163 43.0314 114.457 44.3305 114.645 45.6398C113.545 46.2803 112.492 46.9959 111.494 47.7809C108.496 50.137 105.992 53.1101 104.18 56.5438C102.369 59.9776 101.328 63.7225 101.076 67.5267C100.992 68.7945 100.996 70.0678 101.088 71.3372C99.9014 71.9211 98.6632 72.4119 97.3837 72.8019C96.7157 70.6702 96.3425 68.4649 96.2663 66.2484C96.1209 62.016 97.0633 57.7444 99.1084 53.8679C101.154 49.9915 104.147 46.8021 107.723 44.5328C109.596 43.3443 111.626 42.4073 113.763 41.7553ZM61.1393 42.9659C62.0455 42.9677 62.9452 43.0191 63.8352 43.1188C63.5941 44.1953 63.4194 45.2808 63.3102 46.3691C62.2724 45.994 61.2081 45.6801 60.1223 45.4309C60.4149 44.5963 60.7538 43.7734 61.1393 42.9659ZM66.5108 43.5685C68.6773 44.0565 70.7607 44.8332 72.7071 45.8696C76.4447 47.8598 79.6724 50.8116 82.0066 54.5203C84.3409 58.2292 85.6059 62.4161 85.7837 66.6471C85.8762 68.8502 85.6753 71.0646 85.1782 73.229C83.8838 72.9384 82.6233 72.5462 81.4068 72.0595C81.4024 70.8018 81.3115 69.5474 81.1353 68.3051C80.5983 64.5172 79.2737 60.8465 77.1971 57.5473C75.1259 54.2562 72.3969 51.4792 69.2231 49.3577C68.1728 48.6558 67.0738 48.0263 65.9338 47.4745C66.0211 46.1672 66.2129 44.8611 66.5108 43.5685ZM121.198 45.7098C121.859 47.8301 122.228 50.0227 122.304 52.2265C122.449 56.4585 121.506 60.7297 119.462 64.6055C117.417 68.4815 114.423 71.6706 110.848 73.9401C108.987 75.1218 106.968 76.0549 104.845 76.7066C104.45 75.4404 104.159 74.1526 103.972 72.8557C105.059 72.2231 106.1 71.5173 107.088 70.7436C110.1 68.3845 112.617 65.402 114.436 61.9539C116.25 58.5146 117.291 54.7628 117.541 50.9534C117.624 49.6929 117.619 48.4264 117.527 47.1631C118.703 46.5851 119.93 46.0981 121.198 45.7098ZM59.3682 48.0304C60.6736 48.3216 61.9457 48.7166 63.1735 49.2085C63.1783 50.4812 63.2714 51.7511 63.4518 53.0087C63.9936 56.7825 65.3162 60.4374 67.3841 63.7232C69.4522 67.0088 72.1752 69.7825 75.3435 71.903C76.3994 72.6097 77.504 73.2432 78.6493 73.798C78.5617 75.1176 78.3677 76.4354 78.0657 77.7385C75.8856 77.2512 73.7894 76.4717 71.8317 75.4295C68.0937 73.4393 64.8653 70.4872 62.5307 66.7779C60.1962 63.0684 58.9312 58.8811 58.7535 54.6498C58.6606 52.4339 58.8646 50.2068 59.3682 48.0304ZM114.891 48.6666C114.905 49.3703 114.889 50.0742 114.843 50.7761C114.618 54.1966 113.678 57.5766 112.036 60.6879C110.39 63.8073 108.124 66.4972 105.418 68.6164C104.872 69.0449 104.307 69.4503 103.725 69.8315C103.711 69.1215 103.727 68.4117 103.774 67.7041C104.001 64.2897 104.941 60.916 106.58 57.8096C108.219 54.7033 110.473 52.0224 113.163 49.9079C113.721 49.4697 114.297 49.0556 114.891 48.6666ZM65.9178 50.509C66.5342 50.8489 67.1356 51.2149 67.7205 51.6058C70.5702 53.5105 73.0273 56.0152 74.9011 58.9923C76.7795 61.9771 77.9761 65.2847 78.4586 68.6875C78.5562 69.3754 78.6249 70.0673 78.6642 70.7614C78.0423 70.4188 77.4357 70.0496 76.8464 69.6551C74.0026 67.7519 71.551 65.2508 69.6801 62.2783C67.8094 59.3059 66.6149 56.0132 66.1287 52.6261C66.028 51.9242 65.9576 51.2179 65.9178 50.509ZM101.441 74.158C101.632 75.2349 101.889 76.3039 102.212 77.3589C101.332 77.5261 100.439 77.6462 99.5357 77.717C99.0898 76.9412 98.6889 76.1463 98.3335 75.3363C99.3971 75.0052 100.434 74.6112 101.441 74.158ZM81.2687 74.9031C82.2972 75.2755 83.3515 75.5873 84.4264 75.8356C84.1313 76.6811 83.7885 77.5146 83.3982 78.3322C82.5034 78.3305 81.6147 78.2803 80.7355 78.1831C80.9805 77.0965 81.158 76.0012 81.2687 74.9031ZM129.522 76.359C129.174 76.359 128.824 76.3658 128.474 76.3791C123.618 76.5644 118.99 78.0298 115 80.5195C111.016 83.006 107.034 87.2271 104.73 91.5143C107.354 95.6129 111.648 99.5201 115.81 101.695C119.977 103.873 124.702 104.981 129.559 104.796C134.415 104.611 139.042 103.146 143.031 100.657C147.015 98.1706 150.741 93.9573 153.044 89.6708C150.421 85.5713 146.387 81.6564 142.225 79.4808C138.357 77.459 134.01 76.3589 129.522 76.359ZM128.578 79.09C132.957 78.9229 137.216 79.921 140.97 81.8828C142.935 82.9102 144.762 84.2006 146.395 85.7249C145.49 86.7098 144.512 87.6139 143.472 88.4313C142.367 87.799 141.221 87.2449 140.041 86.7724C136.82 85.4816 133.36 84.8006 129.838 84.8006C129.492 84.8006 129.144 84.8074 128.796 84.8207C124.917 84.9686 121.153 85.94 117.733 87.6235C116.593 88.1845 115.492 88.8245 114.439 89.539C113.34 88.8033 112.296 87.9764 111.318 87.0634C112.83 85.4191 114.553 83.9932 116.435 82.819C120.027 80.5767 124.198 79.2572 128.578 79.09ZM55.4895 79.1839C55.141 79.1839 54.7915 79.1906 54.4415 79.2039C49.5852 79.3892 44.958 80.8541 40.9687 83.3433C36.985 85.8292 33.2596 90.0425 30.9558 94.3291C33.5793 98.4285 37.6132 102.343 41.7751 104.519C45.943 106.698 50.669 107.806 55.5257 107.621C60.3824 107.436 65.0105 105.97 68.9999 103.481C72.9842 100.994 76.9661 96.7729 79.2695 92.4857C76.6458 88.3871 72.3522 84.4796 68.1904 82.3046C64.3237 80.2836 59.9763 79.1839 55.4895 79.1839ZM54.5447 81.9147C58.924 81.7476 63.1824 82.7454 66.9355 84.7069C68.8897 85.7283 70.707 87.0095 72.3329 88.5222C71.4341 89.4978 70.4642 90.3935 69.4345 91.2036C68.3432 90.5786 67.2112 90.03 66.0473 89.5614C62.8152 88.2602 59.341 87.5733 55.8039 87.5733C55.457 87.5733 55.1094 87.5799 54.7615 87.5932C50.8757 87.7414 47.1063 88.7163 43.682 90.4041C42.549 90.9627 41.4544 91.5997 40.4065 92.3112C39.318 91.5819 38.2829 90.7628 37.3125 89.8585C38.8184 88.2263 40.5327 86.8103 42.4034 85.6429C45.9957 83.4011 50.1659 82.0817 54.5447 81.9147ZM128.9 87.5314C132.409 87.3975 135.858 88.0092 139.034 89.2818C139.693 89.5456 140.34 89.8377 140.974 90.1576C140.371 90.5214 139.753 90.8595 139.123 91.1705C136.048 92.6861 132.65 93.5617 129.135 93.6958C125.611 93.8303 122.148 93.2125 118.96 91.9291C118.316 91.6697 117.682 91.3831 117.061 91.0701C117.669 90.7028 118.292 90.3621 118.928 90.049C121.998 88.5378 125.39 87.6654 128.9 87.5314ZM148.269 87.6775C148.845 88.3483 149.389 89.0533 149.895 89.7909C149.441 90.5747 148.946 91.3283 148.415 92.0492C147.603 91.3021 146.75 90.608 145.862 89.9693C146.706 89.258 147.51 88.4933 148.269 87.6775ZM109.598 89.1532C110.417 89.9087 111.276 90.61 112.172 91.2549C111.335 91.9594 110.538 92.7165 109.786 93.5233C109.201 92.8449 108.65 92.1313 108.137 91.3844C108.586 90.6103 109.074 89.866 109.598 89.1532ZM54.8651 90.3042C58.3892 90.1697 61.852 90.7873 65.0402 92.0709C65.6846 92.3303 66.318 92.6168 66.9388 92.9297C66.3311 93.297 65.7084 93.6377 65.0722 93.9508C62.0018 95.4621 58.6099 96.3348 55.1003 96.4687C51.5907 96.6026 48.142 95.9907 44.9656 94.7181C44.3074 94.4544 43.6604 94.1623 43.0266 93.8424C43.6291 93.4786 44.2467 93.1407 44.8776 92.8296C47.9522 91.3139 51.3498 90.4382 54.8651 90.3042ZM74.2144 90.4767C74.7991 91.155 75.3496 91.8685 75.8625 92.6154C75.4136 93.3895 74.9257 94.134 74.402 94.8467C73.5835 94.0912 72.7236 93.3898 71.828 92.7449C72.6647 92.0404 73.462 91.2835 74.2144 90.4767ZM143.593 91.6886C144.682 92.4179 145.717 93.2372 146.688 94.1415C145.182 95.7738 143.467 97.1897 141.597 98.357C138.004 100.599 133.834 101.918 129.455 102.085C129.139 102.097 128.824 102.103 128.509 102.103C124.464 102.103 120.547 101.113 117.064 99.2932C115.11 98.2718 113.293 96.9904 111.667 95.4776C112.566 94.502 113.536 93.6063 114.566 92.7962C115.657 93.4212 116.789 93.9698 117.953 94.4384C121.502 95.8672 125.343 96.5554 129.238 96.4068C133.124 96.2584 136.894 95.2838 140.318 93.5959C141.451 93.0373 142.545 92.4001 143.593 91.6886ZM35.5853 91.9507C36.397 92.6978 37.2496 93.3918 38.1375 94.0305C37.2938 94.7418 36.4899 95.5065 35.7311 96.3223C35.1546 95.6515 34.6113 94.9465 34.1047 94.2089C34.5593 93.4251 35.054 92.6717 35.5853 91.9507ZM69.5613 94.461C70.6602 95.1967 71.7045 96.0235 72.6819 96.9366C71.1699 98.5809 69.4469 100.007 67.5655 101.181C63.9727 103.423 59.8019 104.743 55.4223 104.91C55.106 104.922 54.7909 104.928 54.476 104.928C50.4306 104.928 46.5127 103.937 43.0304 102.117C41.0649 101.09 39.2383 99.7994 37.6053 98.2751C38.5102 97.2902 39.4884 96.3861 40.5283 95.5687C41.6328 96.2009 42.7791 96.7549 43.9585 97.2274C47.4975 98.6453 51.3241 99.3273 55.2037 99.1793C59.0832 99.0312 62.8468 98.0598 66.2674 96.3763C67.4073 95.8153 68.5081 95.1755 69.5613 94.461ZM99.5291 102.771C99.2795 102.771 99.0318 102.774 98.7858 102.782C96.5482 107.103 95.3113 112.775 95.5085 117.467C95.7057 122.165 97.1089 126.811 99.6976 130.925C102.286 135.038 105.868 138.312 110.019 140.523C114.164 142.73 119.675 143.849 124.539 143.701C126.778 139.379 128.151 133.929 127.954 129.236C127.757 124.538 126.354 119.891 123.765 115.777C121.176 111.664 117.593 108.388 113.442 106.178C109.506 104.083 104.218 102.771 99.5291 102.771ZM86.0555 103.268C81.1942 103.491 75.6635 105.255 71.6989 107.772C67.7291 110.292 64.4066 113.83 62.1389 118.129C59.8712 122.427 58.8265 127.167 58.9875 131.866C59.1486 136.559 60.9345 141.892 63.495 146.03C68.3571 145.808 73.7642 144.272 77.7295 141.755C81.7002 139.235 85.0232 135.697 87.291 131.398C89.5589 127.099 90.6037 122.359 90.4423 117.659C90.2809 112.965 88.6166 107.406 86.0555 103.268ZM100.602 105.668C101.496 105.669 102.385 105.72 103.264 105.817C103.019 106.904 102.842 107.999 102.731 109.097C101.703 108.724 100.649 108.413 99.5736 108.164C99.8687 107.319 100.211 106.485 100.602 105.668ZM105.934 106.261C108.114 106.749 110.211 107.528 112.168 108.571C115.906 110.561 119.135 113.513 121.469 117.222C123.804 120.932 125.069 125.119 125.246 129.35C125.339 131.566 125.135 133.793 124.632 135.97C123.326 135.678 122.054 135.283 120.826 134.791C120.822 133.519 120.728 132.249 120.548 130.991C120.006 127.217 118.684 123.562 116.616 120.277C114.548 116.991 111.825 114.217 108.656 112.097C107.6 111.39 106.496 110.757 105.351 110.202C105.438 108.882 105.632 107.565 105.934 106.261ZM84.4644 106.283C84.9104 107.059 85.3111 107.854 85.6665 108.663C84.6029 108.995 83.5655 109.389 82.5592 109.842C82.3674 108.765 82.1104 107.696 81.788 106.641C82.6678 106.474 83.5611 106.354 84.4644 106.283ZM79.1547 107.293C79.5503 108.56 79.841 109.847 80.0277 111.144C78.9407 111.777 77.8996 112.483 76.9118 113.256C73.8999 115.616 71.3835 118.598 69.5644 122.046C67.7501 125.485 66.7094 129.237 66.459 133.046C66.3762 134.307 66.3807 135.573 66.4729 136.837C65.2971 137.415 64.0701 137.902 62.8017 138.29C62.1411 136.17 61.7719 133.977 61.6963 131.773C61.5511 127.541 62.4936 123.27 64.5383 119.394C66.5833 115.518 69.5764 112.329 73.1517 110.06C75.0133 108.878 77.0317 107.945 79.1547 107.293ZM98.8218 110.771C100.116 111.062 101.377 111.454 102.593 111.94C102.598 113.198 102.688 114.453 102.865 115.695C103.402 119.483 104.726 123.154 106.803 126.453C108.874 129.744 111.603 132.521 114.777 134.642C115.827 135.344 116.926 135.974 118.066 136.525C117.979 137.833 117.787 139.139 117.489 140.431C115.323 139.943 113.239 139.167 111.293 138.13C107.555 136.14 104.328 133.188 101.993 129.48C99.6591 125.771 98.394 121.584 98.2161 117.353C98.1236 115.15 98.3248 112.936 98.8218 110.771ZM86.6162 111.198C87.2842 113.33 87.6576 115.535 87.7337 117.751C87.8791 121.984 86.9366 126.256 84.8914 130.132C82.8463 134.009 79.8527 137.198 76.2771 139.467C74.4045 140.656 72.3735 141.593 70.2369 142.245C69.8364 140.969 69.5427 139.669 69.3548 138.36C70.4546 137.72 71.5076 137.004 72.5065 136.219C75.5038 133.863 78.0078 130.89 79.8194 127.456C81.631 124.022 82.6714 120.277 82.9239 116.473C83.008 115.205 83.0042 113.932 82.912 112.663C84.0986 112.079 85.3367 111.588 86.6162 111.198ZM105.336 113.239C105.958 113.581 106.564 113.95 107.154 114.345C109.997 116.248 112.449 118.749 114.32 121.722C116.191 124.694 117.385 127.987 117.871 131.374C117.972 132.076 118.042 132.782 118.082 133.491C117.466 133.151 116.865 132.785 116.28 132.394C113.43 130.489 110.973 127.985 109.099 125.008C107.22 122.023 106.024 118.715 105.541 115.312C105.444 114.625 105.375 113.933 105.336 113.239ZM80.2748 114.168C80.289 114.878 80.2727 115.588 80.2257 116.296C79.9992 119.71 79.0589 123.084 77.4201 126.19C75.7813 129.297 73.5273 131.978 70.8369 134.092C70.2794 134.53 69.7028 134.944 69.1088 135.333C69.0949 134.63 69.1111 133.926 69.1571 133.224C69.3818 129.803 70.3225 126.423 71.964 123.312C73.6096 120.193 75.876 117.503 78.5815 115.383C79.1285 114.955 79.6933 114.549 80.2748 114.168ZM120.69 137.631C121.728 138.006 122.792 138.32 123.878 138.569C123.585 139.404 123.246 140.227 122.861 141.034C121.955 141.032 121.055 140.981 120.165 140.881C120.406 139.805 120.581 138.719 120.69 137.631ZM66.8273 139.661C67.0214 140.748 67.2817 141.827 67.6088 142.892C66.7397 143.055 65.8575 143.173 64.9654 143.243C64.5139 142.458 64.1087 141.653 63.75 140.832C64.8029 140.503 65.8302 140.111 66.8273 139.661Z" fill="white"/>
</svg>
